<svg width="464" height="370" viewBox="0 0 464 370" fill="none" xmlns="http://www.w3.org/2000/svg">
<path fill-rule="evenodd" clip-rule="evenodd" d="M376.628 149.623C383.31 172.821 384.053 197.329 378.786 220.892C377.34 227.36 381.411 233.775 387.879 235.221C394.347 236.666 400.762 232.595 402.208 226.127C408.32 198.783 407.495 170.348 399.814 143.41L376.628 149.623ZM396.005 131.698L357.73 109.096C352.569 101.426 346.663 94.2419 340.077 87.656C335.391 82.9697 335.391 75.3717 340.077 70.6854C344.764 65.9991 352.362 65.9991 357.048 70.6854C374.345 87.9826 387.623 108.814 396.005 131.698Z" fill="#00FFFF"/>
<path d="M119.072 296.238C100.491 277.658 86.9055 254.685 79.5746 229.452C72.2437 204.219 71.4054 177.543 77.1374 151.899" stroke="#FF00FF" stroke-width="24" stroke-linecap="round" stroke-linejoin="round"/>
<path fill-rule="evenodd" clip-rule="evenodd" d="M307.657 40.438L201.19 68.9658C178.328 75.0917 158.686 87.6026 142.993 105.497C127.345 123.341 117.339 145.424 114.241 168.955C111.143 192.486 115.092 216.407 125.589 237.693C136.087 258.979 152.66 276.674 173.214 288.541C193.768 300.408 217.38 305.913 241.063 304.361C264.745 302.809 287.436 294.269 306.266 279.82C325.095 265.372 339.217 245.665 346.846 223.191C354.551 200.493 356.069 179.474 349.983 156.762L347.913 149.035L355.64 146.964L390.367 137.66L294.235 80.8914L287.55 76.9436L291.295 70.1431L307.657 40.438ZM197.049 53.511L321.653 20.1233L339.79 15.2635L330.731 31.7105L309.056 71.062L414.905 133.568L431.307 143.254L412.908 148.184L367.276 160.411C372.013 183.672 369.711 205.607 361.997 228.334C353.351 253.805 337.346 276.14 316.006 292.514C294.666 308.889 268.95 318.568 242.109 320.327C215.268 322.086 188.509 315.847 165.214 302.398C141.92 288.948 123.136 268.894 111.239 244.769C99.3427 220.645 94.8668 193.535 98.3777 166.867C101.889 140.198 113.229 115.17 130.964 94.9471C148.655 74.7739 171.004 60.4896 197.049 53.511Z" fill="black"/>
<circle cx="178.307" cy="244.365" r="14.5" transform="rotate(-15 178.307 244.365)" fill="black"/>
<circle cx="311.605" cy="208.648" r="14.5" transform="rotate(-15 311.605 208.648)" fill="black"/>
</svg>
